<svg width="1433" height="1433" fill="none" xmlns="http://www.w3.org/2000/svg"><path fill-rule="evenodd" clip-rule="evenodd" d="M743.692 820.905c-5.977-.596-11.956-1.193-17.922-1.582 2.836.819 5.658 1.751 8.482 2.682 6.13 2.024 12.266 4.049 18.57 4.933 75.852 10.753 174.87-25.477 226.444-121.974 45.224-84.65 49.204-174.578 39.464-266.582-15.12-142.663-65.961-274.148-128.425-401.81-3.948-8.081-7.16-16.524-10.372-24.964-1.477-3.882-2.953-7.763-4.501-11.608l-.115.017a143433.47 143433.47 0 01-30.072 4.346c.932 2.248 1.812 4.523 2.693 6.799 1.835 4.74 3.67 9.483 5.976 13.988 60.374 117.644 113.826 237.755 138.38 368.962 14.706 78.555 23.016 157.044 4.849 235.974-25.273 109.8-110.381 186.099-215.048 192.603-12.713.781-25.556-.501-38.403-1.784zM306.197 90.835c-5.268-2.148-10.537-4.295-15.829-6.38-13.817 1.99-27.63 3.984-41.444 5.978l-.067.01-.02.003-.019.003c-13.822 1.995-27.643 3.99-41.468 5.981 1.825.56 3.644 1.144 5.463 1.727 4.121 1.321 8.242 2.643 12.434 3.697 161.971 40.824 318.406 94.929 458.299 189.319 65.726 44.336 127.516 93.116 169.434 161.76 50.196 82.219 58.426 167.625 11.724 254.827-17.195 32.084-42.064 56.163-75.278 72.042 2.704-6.685 5.294-13.29 7.855-19.82l.005-.013v-.002l.001-.001c5.584-14.241 11.026-28.12 17.204-41.669 12.182-26.71 16.607-54.465 13.684-83.364-9.111-89.946-56.483-152.579-136.774-192.145-81.386-40.105-167.556-41.739-254.918-32.296-115.301 12.464-223.957 48.501-329.314 95.598a229583.892 229583.892 0 00-81.848 36.628l-1.678.751-2.685 1.202c-6.985 3.128-13.971 6.255-20.958 9.382 1.453 10.063 2.907 20.126 4.36 30.173 2.185-.908 4.389-1.778 6.591-2.648 4.809-1.898 9.615-3.795 14.229-6.092 102.826-51.083 205.668-101.676 318.798-127.454 79.001-18.002 158.149-33.113 239.404-23.981 108.394 12.186 190.939 61.097 229.46 169.078 13.619 38.178 14.174 76.323 1.453 114.745-3.7-8.66-7.112-17.378-10.499-26.032-7.36-18.805-14.605-37.316-24.445-54.309-37.15-64.119-96.18-97.608-168.307-103.146-82.626-6.338-154.018 26.023-216.674 77.858-71.931 59.512-125.867 133.923-172.193 214.182C167.947 910.409 130.782 1011.68 96 1113.94c-2.016 5.92-4.838 11.55-7.662 17.19-1.315 2.63-2.631 5.26-3.866 7.92 2 13.84 3.996 27.67 5.993 41.51l.014.1.004.02c1.99 13.8 3.98 27.59 5.974 41.39.813-2.63 1.66-5.26 2.505-7.88 1.822-5.65 3.643-11.3 5.138-17.03 36.692-140.97 81.516-278.681 157.741-404.257 43.371-71.421 91.02-139.183 156.435-192.602 57.365-46.852 122.585-72.892 196.916-65.328 72.845 7.4 132.692 38.896 166.837 106.07l-62.191-26.039-1.474-.617-.302-.126-.763-.32c-10.38 4.247-20.997 8.104-31.614 11.961-23.32 8.471-46.641 16.943-67.456 29.549-77.581 46.999-112.232 157.219-85.06 248.946 24.837 83.805 77.026 147.453 141.543 202.943 109.031 93.79 236.368 153.97 370.558 201.52 24.32 8.62 48.54 17.52 72.75 26.42l.04.01.04.01c10.78 3.97 21.57 7.93 32.37 11.87 13.72-1.98 27.44-3.97 41.16-5.95l.18-.02c13.88-2.01 27.76-4.01 41.64-6.02-1.84-.62-3.67-1.29-5.5-1.96-3.91-1.44-7.82-2.87-11.84-3.86-149.38-36.8-294.727-83.95-427.141-164.84-73.989-45.22-144.891-94.44-196.72-165.439-63.799-87.398-79.834-180.563-27.058-279.772 17.62-33.113 44.22-56.506 74.136-71.111l-8.763 24.485-.132.369a77406.168 77406.168 0 00-14.522 40.589c3.2 8.517 6.157 17.159 9.113 25.8v.001c6.519 19.052 13.036 38.102 22.158 55.814 33.426 64.887 90.84 98.621 160.779 107.622 84.847 10.929 158.051-21.613 222.88-73.774 76.81-61.799 132.82-140.801 180.99-225.781 54.71-96.481 91.14-200.591 126.9-304.979 1.33-3.851 3.45-7.428 5.57-11.006.98-1.658 1.97-3.317 2.87-5.003-4.16-28.931-8.34-57.863-12.52-86.794a364.57 364.57 0 01-1.77 5.518v.006c-1.33 4.071-2.65 8.142-3.65 12.283-41.37 170.401-98.14 334.432-198.88 480.199-47.26 68.367-100.18 131.13-175.018 171.186-86.333 46.199-193.192 38.014-263.213-19.962-18.272-15.128-33.279-32.999-42.113-53.877l25.997 9.165c15.228 5.368 30.274 10.672 45.313 15.976.218-.735.374-1.626.531-2.519.338-1.922.677-3.848 1.625-4.227 9.061-3.638 18.294-6.944 27.525-10.249 18.052-6.463 36.096-12.924 52.831-21.852 48.596-25.909 76.209-70.294 91.967-121.279 24.07-77.825 2.923-149.557-37.198-216.372-47.861-79.72-119.123-136.031-195.185-186.623-99.641-66.26-209.815-109.926-322.259-148.594-11.806-4.052-23.379-8.768-34.955-13.485h-.001zM696.051 610.28h.002l.003.001c6.244.95 12.486 1.9 18.727 2.651-76.522-28.543-145.959-10.13-205.897 39.179-68.083 56.008-94.755 134.628-100.745 220.273-8.7 124.482 17.629 243.706 61.929 358.866 18.156 47.18 39.084 93.29 60.01 139.4 9.419 20.75 18.838 41.5 28.003 62.35l30.165-4.36c-6.756-13.82-13.585-27.6-20.413-41.37l-.001-.01h-.002c-43.77-88.32-87.516-176.59-111.816-273.27-20.502-81.51-37.804-163.149-33.429-247.945 3.884-75.532 26.737-143.336 82.088-196.958 41.59-40.307 91.767-62.87 150.252-62.968 13.704-.011 27.415 2.075 41.123 4.161h.001zm-89.233 137.417v.007c-.584 9.85-1.169 19.703-.801 29.518 3.789 102.163 78.528 190.368 184.725 217.501 76.601 19.577 153.235 12.917 230.078-.213 145.71-24.895 277.32-86.605 407.13-153.342l4.36 30.169c-19.43 8.63-38.78 17.49-58.13 26.351l-.01.004c-42.87 19.633-85.74 39.267-129.59 56.397-118.65 46.351-241.23 74.931-369.92 66.981-76.209-4.7-146.179-27.784-203.034-80.318-54.731-50.592-77.042-114.734-69.349-188.965.422-4.104 1.869-8.103 3.317-12.104l.001-.001c.682-1.887 1.365-3.774 1.941-5.673-.176 4.559-.447 9.123-.718 13.688z" fill="url(#paint0_radial_8533_7123)"/><defs><radialGradient id="paint0_radial_8533_7123" cx="0" cy="0" r="1" gradientUnits="userSpaceOnUse" gradientTransform="matrix(0 286.325 -286.188 0 716.329 716.671)"><stop stop-color="#5A5A5A"/><stop offset=".987"/></radialGradient></defs></svg>